<svg xmlns="http://www.w3.org/2000/svg" viewBox="0 0 800 600" role="img" aria-label="Placeholder image, native seedlings cupped in two hands">
  <defs>
    <linearGradient id="g" x1="0" y1="0" x2="1" y2="1">
      <stop offset="0" stop-color="#2F5D45"/>
      <stop offset="1" stop-color="#C2855B"/>
    </linearGradient>
    <linearGradient id="leaf" x1="0" y1="0" x2="0" y2="1">
      <stop offset="0" stop-color="#E4D5C3" stop-opacity="0.95"/>
      <stop offset="1" stop-color="#E4D5C3" stop-opacity="0.7"/>
    </linearGradient>
  </defs>
  <rect width="800" height="600" fill="url(#g)"/>
  <circle cx="140" cy="120" r="180" fill="#ffffff" opacity="0.06"/>
  <circle cx="690" cy="500" r="220" fill="#1B1B1B" opacity="0.07"/>
  <!-- generic botanical motif: a stem with leaves and a sprout (not cultural art), centred -->
  <g transform="translate(400 350)" stroke="url(#leaf)" stroke-width="7" fill="none" stroke-linecap="round" stroke-linejoin="round" opacity="0.92">
    <path d="M0 160 C 0 80 0 20 0 -80"/>
    <path d="M0 70 C -58 50 -95 0 -100 -52 C -42 -42 -6 -8 0 44 Z" fill="url(#leaf)" stroke="none"/>
    <path d="M0 28 C 58 8 95 -40 100 -92 C 42 -82 6 -46 0 6 Z" fill="url(#leaf)" stroke="none"/>
    <path d="M0 -44 C -44 -62 -70 -104 -72 -146 C -30 -136 -4 -96 0 -50 Z" fill="url(#leaf)" stroke="none"/>
  </g>
</svg>
